HIERARCHY
ROOT hip
{
  OFFSET 0 0 0
  CHANNELS 6 Xposition Yposition Zposition Zrotation Yrotation Xrotation
  JOINT abdomen
  {
    OFFSET 0 20.6881 -0.73152
    CHANNELS 3 Zrotation Xrotation Yrotation
    JOINT chest
    {
      OFFSET 0 11.7043 -0.48768
      CHANNELS 3 Zrotation Xrotation Yrotation
      JOINT neck
      {
        OFFSET 0 22.1894 -2.19456
        CHANNELS 3 Zrotation Xrotation Yrotation
        JOINT head
        {
          OFFSET -0.24384 7.07133 1.2192
          CHANNELS 3 Zrotation Xrotation Yrotation
          JOINT leftEye
          {
            OFFSET 4.14528 8.04674 8.04672
            CHANNELS 3 Zrotation Xrotation Yrotation
            End Site
            {
              OFFSET 1 0 0
            }
          }
          JOINT rightEye
          {
            OFFSET -3.6576 8.04674 8.04672
            CHANNELS 3 Zrotation Xrotation Yrotation
            End Site
            {
              OFFSET 1 0 0
            }
          }
        }
      }
      JOINT rCollar
      {
        OFFSET -2.68224 19.2634 -4.8768
        CHANNELS 3 Zrotation Xrotation Yrotation
        JOINT rShldr
        {
          OFFSET -8.77824 -1.95073 1.46304
          CHANNELS 3 Zrotation Xrotation Yrotation
          JOINT rForeArm
          {
            OFFSET -28.1742 -1.7115 0.48768
            CHANNELS 3 Zrotation Xrotation Yrotation
            JOINT rHand
            {
              OFFSET -22.5879 0.773209 7.07136
              CHANNELS 3 Zrotation Xrotation Yrotation
              JOINT rThumb1
              {
                OFFSET -1.2192 -0.487915 3.41376
                CHANNELS 3 Zrotation Xrotation Yrotation
                JOINT rThumb2
                {
                  OFFSET -3.37035 -0.52449 3.41376
                  CHANNELS 3 Zrotation Xrotation Yrotation
                  End Site
                  {
                    OFFSET -1.78271 -1.18214 1.43049
                  }
                }
              }
              JOINT rIndex1
              {
                OFFSET -7.75947 0.938293 5.60832
                CHANNELS 3 Zrotation Xrotation Yrotation
                JOINT rIndex2
                {
                  OFFSET -2.54057 -0.884171 1.56538
                  CHANNELS 3 Zrotation Xrotation Yrotation
                  End Site
                  {
                    OFFSET -1.62519 -0.234802 1.16502
                  }
                }
              }
              JOINT rMid1
              {
                OFFSET -8.24714 1.18213 3.41376
                CHANNELS 3 Zrotation Xrotation Yrotation
                JOINT rMid2
                {
                  OFFSET -3.10165 -0.590103 1.0647
                  CHANNELS 3 Zrotation Xrotation Yrotation
                  End Site
                  {
                    OFFSET -2.48547 -0.328903 0.83742
                  }
                }
              }
              JOINT rRing1
              {
                OFFSET -8.82822 0.546677 1.51678
                CHANNELS 3 Zrotation Xrotation Yrotation
                JOINT rRing2
                {
                  OFFSET -2.60934 -0.819778 -0.0198488
                  CHANNELS 3 Zrotation Xrotation Yrotation
                  End Site
                  {
                    OFFSET -2.33842 -0.294052 0.168128
                  }
                }
              }
              JOINT rPinky1
              {
                OFFSET -8.27202 -0.0477905 -0.4584
                CHANNELS 3 Zrotation Xrotation Yrotation
                JOINT rPinky2
                {
                  OFFSET -1.82734 -0.647385 -0.700984
                  CHANNELS 3 Zrotation Xrotation Yrotation
                  End Site
                  {
                    OFFSET -1.69225 -0.51767 -0.607171
                  }
                }
              }
            }
          }
        }
      }
      JOINT lCollar
      {
        OFFSET 2.68224 19.2634 -4.8768
        CHANNELS 3 Zrotation Xrotation Yrotation
        JOINT lShldr
        {
          OFFSET 8.77824 -1.95073 1.46304
          CHANNELS 3 Zrotation Xrotation Yrotation
          JOINT lForeArm
          {
            OFFSET 28.1742 -1.7115 0.48768
            CHANNELS 3 Zrotation Xrotation Yrotation
            JOINT lHand
            {
              OFFSET 22.5879 0.773209 7.07136
              CHANNELS 3 Zrotation Xrotation Yrotation
              JOINT lThumb1
              {
                OFFSET 1.2192 -0.487915 3.41376
                CHANNELS 3 Zrotation Xrotation Yrotation
                JOINT lThumb2
                {
                  OFFSET 3.37035 -0.52449 3.41376
                  CHANNELS 3 Zrotation Xrotation Yrotation
                  End Site
                  {
                    OFFSET 1.78271 -1.18214 1.43049
                  }
                }
              }
              JOINT lIndex1
              {
                OFFSET 7.75947 0.938293 5.60832
                CHANNELS 3 Zrotation Xrotation Yrotation
                JOINT lIndex2
                {
                  OFFSET 2.54057 -0.884171 1.56538
                  CHANNELS 3 Zrotation Xrotation Yrotation
                  End Site
                  {
                    OFFSET 1.62519 -0.234802 1.16502
                  }
                }
              }
              JOINT lMid1
              {
                OFFSET 8.24714 1.18213 3.41376
                CHANNELS 3 Zrotation Xrotation Yrotation
                JOINT lMid2
                {
                  OFFSET 3.10165 -0.590103 1.0647
                  CHANNELS 3 Zrotation Xrotation Yrotation
                  End Site
                  {
                    OFFSET 2.48547 -0.328903 0.83742
                  }
                }
              }
              JOINT lRing1
              {
                OFFSET 8.82822 0.546677 1.51678
                CHANNELS 3 Zrotation Xrotation Yrotation
                JOINT lRing2
                {
                  OFFSET 2.60934 -0.819778 -0.0198488
                  CHANNELS 3 Zrotation Xrotation Yrotation
                  End Site
                  {
                    OFFSET 2.33842 -0.294052 0.168128
                  }
                }
              }
              JOINT lPinky1
              {
                OFFSET 8.27202 -0.0477905 -0.4584
                CHANNELS 3 Zrotation Xrotation Yrotation
                JOINT lPinky2
                {
                  OFFSET 1.82734 -0.647385 -0.700984
                  CHANNELS 3 Zrotation Xrotation Yrotation
                  End Site
                  {
                    OFFSET 1.69225 -0.51767 -0.607171
                  }
                }
              }
            }
          }
        }
      }
    }
  }
  JOINT rButtock
  {
    OFFSET -8.77824 4.35084 1.2192
    CHANNELS 3 Zrotation Xrotation Yrotation
    JOINT rThigh
    {
      OFFSET 0 -1.70687 -2.19456
      CHANNELS 3 Zrotation Xrotation Yrotation
      JOINT rShin
      {
        OFFSET 0 -36.8199 0.73152
        CHANNELS 3 Zrotation Xrotation Yrotation
        JOINT rFoot
        {
          OFFSET 0.73152 -45.1104 -5.12064
          CHANNELS 3 Zrotation Xrotation Yrotation
          End Site
          {
            OFFSET -1.1221 -3.69964 12.103
          }
        }
      }
    }
  }
  JOINT lButtock
  {
    OFFSET 8.77824 4.35084 1.2192
    CHANNELS 3 Zrotation Xrotation Yrotation
    JOINT lThigh
    {
      OFFSET 0 -1.70687 -2.19456
      CHANNELS 3 Zrotation Xrotation Yrotation
      JOINT lShin
      {
        OFFSET 0 -36.8199 0.73152
        CHANNELS 3 Zrotation Xrotation Yrotation
        JOINT lFoot
        {
          OFFSET -0.73152 -45.1104 -5.12064
          CHANNELS 3 Zrotation Xrotation Yrotation
          End Site
          {
            OFFSET 1.1221 -3.69964 12.103
          }
        }
      }
    }
  }
}
MOTION
Frames:	8
Frame Time:	0.00833333
1.21024 58.9964 30.2029 -2.2084 -3.4463 1.5882 1.82933 23.4572 0.103426 0.93597 1.79423 0.0866942 -2.42564 3.89079 -0.109953 4.66334 -39.7307 1.98162 -0.0 0.0 0.0 -0.0 0.0 0.0 -3.76043e-14 3.18055e-15 1.98934e-13 3.71359 -7.29766 52.8603 -25.5167 -22.2532 54.8469 -0.609518 21.6146 3.1922 -1.12744e-10 1.92813e-09 6.1448e-10 -1.82677e-10 3.35786e-09 1.06102e-09 -1.12753e-10 1.9281e-09 6.14464e-10 7.73091 5.47488 0.417314 -1.12744e-10 1.92813e-09 6.1448e-10 2.90554 0.965183 0.102902 -1.12737e-10 1.92813e-09 6.14483e-10 10.2786 0.731801 0.0259123 -1.12752e-10 1.92813e-09 6.14493e-10 2.22167 -0.733487 -0.20892 -3.78866e-14 3.17861e-15 1.98586e-13 -7.24002 -8.7956 -57.4732 25.1253 -21.3668 -53.3939 0.0445385 -6.01219 0.848105 -1.19111e-09 4.74246e-09 -2.76842e-10 -2.057e-09 8.19979e-09 -4.84684e-10 -1.19112e-09 4.74246e-09 -2.76835e-10 -7.73091 5.47488 -0.417314 -1.19112e-09 4.74246e-09 -2.76832e-10 -2.90554 0.965183 -0.102902 -1.19113e-09 4.74246e-09 -2.76833e-10 -10.2786 0.731801 -0.0259123 -1.19111e-09 4.74246e-09 -2.76826e-10 -2.22167 -0.733487 0.20892 -2.03217e-16 0.0 -3.88251e-19 -20.4268 -47.377 -17.8446 -3.21162 76.7635 4.38216 -2.86595 -24.75 -6.94434 2.03217e-16 0.0 3.88251e-19 26.7585 -43.6526 24.1893 3.29852 77.9046 -5.07451 6.8702 -23.065 16.0994
1.20887 58.9977 30.1998 -2.1917 -3.4475 1.6081 1.82038 23.4502 0.10818 0.937314 1.80282 0.0867438 -2.42197 3.8788 -0.107235 4.66106 -39.7174 1.98659 -0.0 0.0 0.0 -0.0 0.0 0.0 -2.84426e-14 -2.98189e-16 1.53218e-13 3.70179 -7.29917 52.8582 -25.5169 -22.2531 54.8456 -0.609166 21.6088 3.19124 -9.27347e-11 1.75359e-09 5.59295e-10 -1.49056e-10 3.05503e-09 9.65965e-10 -9.2744e-11 1.75355e-09 5.59275e-10 7.73091 5.47488 0.417314 -9.27349e-11 1.75359e-09 5.59294e-10 2.90554 0.965183 0.102902 -9.27272e-11 1.75358e-09 5.59298e-10 10.2786 0.731801 0.0259123 -9.27414e-11 1.75359e-09 5.59306e-10 2.22167 -0.733487 -0.20892 -2.86792e-14 -2.99874e-16 1.52893e-13 -7.23601 -8.79416 -57.4699 25.1251 -21.3664 -53.3934 0.0443903 -6.00223 0.846688 -1.06287e-09 3.99623e-09 -1.33303e-10 -1.83645e-09 6.91151e-09 -2.35105e-10 -1.06288e-09 3.99623e-09 -1.33295e-10 -7.73091 5.47488 -0.417314 -1.06287e-09 3.99623e-09 -1.33293e-10 -2.90554 0.965183 -0.102902 -1.06288e-09 3.99623e-09 -1.33294e-10 -10.2786 0.731801 -0.0259123 -1.06287e-09 3.99623e-09 -1.3329e-10 -2.22167 -0.733487 0.20892 -2.03217e-16 0.0 -3.88251e-19 -20.4285 -47.3731 -17.8423 -3.2074 76.756 4.37836 -2.86749 -24.7522 -6.9479 2.03217e-16 0.0 3.88251e-19 26.7463 -43.6426 24.1854 3.29407 77.8903 -5.06901 6.87062 -23.0581 16.1016
1.20756 59.0014 30.2017 -2.176 -3.4438 1.6002 1.80895 23.4397 0.110623 0.941059 1.81666 0.086804 -2.36761 3.90464 -0.109452 4.55762 -39.7692 1.93296 -0.0 0.0 0.0 -0.0 0.0 0.0 -6.23021e-15 -1.59027e-14 6.16077e-14 3.68841 -7.30384 52.8565 -25.5174 -22.2531 54.844 -0.608496 21.5976 3.18942 -9.3064e-11 1.91486e-09 6.12374e-10 -1.49068e-10 3.33879e-09 1.05869e-09 -9.30736e-11 1.91481e-09 6.12351e-10 7.73091 5.47488 0.417314 -9.30649e-11 1.91486e-09 6.12373e-10 2.90554 0.965183 0.102902 -9.30574e-11 1.91486e-09 6.12377e-10 10.2786 0.731801 0.0259123 -9.30688e-11 1.91486e-09 6.12383e-10 2.22167 -0.733487 -0.20892 -6.36507e-15 -1.59041e-14 6.13437e-14 -7.23624 -8.79676 -57.4682 25.1247 -21.3655 -53.3921 0.0441744 -5.98765 0.844617 -8.75491e-10 3.04472e-09 -1.62516e-11 -1.51352e-09 5.26591e-09 -3.02221e-11 -8.75493e-10 3.04472e-09 -1.62417e-11 -7.73091 5.47488 -0.417314 -8.75489e-10 3.04472e-09 -1.62433e-11 -2.90554 0.965183 -0.102902 -8.755e-10 3.04472e-09 -1.62445e-11 -10.2786 0.731801 -0.0259123 -8.75485e-10 3.04472e-09 -1.62467e-11 -2.22167 -0.733487 0.20892 -2.03217e-16 0.0 -3.88251e-19 -20.4381 -47.3702 -17.8456 -3.20464 76.7509 4.37632 -2.86907 -24.7571 -6.95195 2.03217e-16 0.0 3.88251e-19 26.7285 -43.6328 24.1792 3.29047 77.8772 -5.06442 6.87563 -23.0467 16.1139
1.19941 59.0035 30.2026 -2.2014 -3.4422 1.6084 1.79868 23.4287 0.110728 0.946263 1.83033 0.0868461 -2.29134 3.95396 -0.114921 4.40726 -39.8605 1.85063 -0.0 0.0 0.0 -0.0 0.0 0.0 1.85868e-14 -3.23024e-14 -3.08268e-14 3.67534 -7.30945 52.8558 -25.5178 -22.2529 54.8425 -0.607781 21.5856 3.18748 -1.06517e-10 1.99332e-09 6.51174e-10 -1.72049e-10 3.47968e-09 1.12698e-09 -1.06526e-10 1.99328e-09 6.5115e-10 7.73091 5.47488 0.417314 -1.06518e-10 1.99332e-09 6.51174e-10 2.90554 0.965183 0.102902 -1.06511e-10 1.99333e-09 6.51177e-10 10.2786 0.731801 0.0259123 -1.06519e-10 1.99333e-09 6.51182e-10 2.22167 -0.733487 -0.20892 1.85612e-14 -3.23032e-14 -3.10221e-14 -7.23776 -8.8012 -57.4663 25.1242 -21.3645 -53.3902 0.0440136 -5.97676 0.843069 -6.58841e-10 1.97291e-09 1.04888e-10 -1.13996e-09 3.41203e-09 1.81837e-10 -6.58841e-10 1.97291e-09 1.049e-10 -7.73091 5.47488 -0.417314 -6.58838e-10 1.97291e-09 1.04895e-10 -2.90554 0.965183 -0.102902 -6.58849e-10 1.97292e-09 1.04893e-10 -10.2786 0.731801 -0.0259123 -6.58835e-10 1.97292e-09 1.04885e-10 -2.22167 -0.733487 0.20892 -2.03217e-16 0.0 -3.88251e-19 -20.4496 -47.3679 -17.8519 -3.20274 76.7469 4.37499 -2.87029 -24.7627 -6.95536 2.03217e-16 0.0 3.88251e-19 26.711 -43.6258 24.1721 3.28738 77.8654 -5.06044 6.88038 -23.0353 16.1256
1.19988 59.0065 30.2031 -2.1744 -3.4335 1.6026 1.79322 23.4207 0.108471 0.951981 1.83837 0.0868412 -2.22197 4.01239 -0.121961 4.26433 -39.9657 1.76958 -0.0 0.0 0.0 -0.0 0.0 0.0 3.55622e-14 -3.81669e-14 -7.90169e-14 3.66448 -7.31375 52.8564 -25.5175 -22.252 54.8411 -0.60729 21.5774 3.18615 -1.25877e-10 1.57037e-09 5.53153e-10 -2.07334e-10 2.74823e-09 9.58637e-10 -1.25886e-10 1.57032e-09 5.53127e-10 7.73091 5.47488 0.417314 -1.25879e-10 1.57037e-09 5.53153e-10 2.90554 0.965183 0.102902 -1.25872e-10 1.57037e-09 5.53156e-10 10.2786 0.731801 0.0259123 -1.25878e-10 1.57037e-09 5.53159e-10 2.22167 -0.733487 -0.20892 3.56051e-14 -3.81667e-14 -7.9166e-14 -7.23762 -8.80527 -57.463 25.1239 -21.3636 -53.3882 0.0440287 -5.97783 0.843222 -4.42789e-10 8.65775e-10 2.60694e-10 -7.67488e-10 1.49889e-09 4.52947e-10 -4.42788e-10 8.65777e-10 2.60707e-10 -7.73091 5.47488 -0.417314 -4.42786e-10 8.65779e-10 2.60701e-10 -2.90554 0.965183 -0.102902 -4.42796e-10 8.65779e-10 2.60697e-10 -10.2786 0.731801 -0.0259123 -4.42782e-10 8.65781e-10 2.60685e-10 -2.22167 -0.733487 0.20892 -2.03217e-16 0.0 -3.88251e-19 -20.4569 -47.3659 -17.8586 -3.2011 76.7425 4.37337 -2.87079 -24.7669 -6.95702 2.03217e-16 0.0 3.88251e-19 26.6999 -43.6242 24.1657 3.28447 77.855 -5.05675 6.88002 -23.0282 16.1264
1.19599 59.0065 30.2021 -2.1743 -3.4275 1.6239 1.79561 23.4174 0.102404 0.95905 1.83884 0.0868453 -2.15952 4.09013 -0.13189 4.12418 -40.1033 1.6859 -0.0 0.0 0.0 -0.0 0.0 0.0 4.2205e-14 -2.26626e-14 -6.02174e-14 3.6561 -7.31731 52.8592 -25.5164 -22.2497 54.8401 -0.607156 21.5752 3.18578 -1.44902e-10 -7.72664e-11 1.14374e-10 -2.47402e-10 -1.13375e-10 2.01243e-10 -1.44911e-10 -7.7309e-11 1.1435e-10 7.73091 5.47488 0.417314 -1.44904e-10 -7.72621e-11 1.14374e-10 2.90554 0.965183 0.102902 -1.44897e-10 -7.72608e-11 1.14377e-10 10.2786 0.731801 0.0259123 -1.44904e-10 -7.72616e-11 1.1438e-10 2.22167 -0.733487 -0.20892 4.22591e-14 -2.26603e-14 -6.03525e-14 -7.23438 -8.80927 -57.4571 25.124 -21.3631 -53.3858 0.044363 -6.00057 0.846453 -1.20452e-10 -8.56297e-10 5.66758e-10 -2.12016e-10 -1.4727e-09 9.82818e-10 -1.20452e-10 -8.56294e-10 5.6677e-10 -7.73091 5.47488 -0.417314 -1.20452e-10 -8.56289e-10 5.66765e-10 -2.90554 0.965183 -0.102902 -1.2046e-10 -8.56293e-10 5.6676e-10 -10.2786 0.731801 -0.0259123 -1.20446e-10 -8.56291e-10 5.66746e-10 -2.22167 -0.733487 0.20892 -2.03217e-16 0.0 -3.88251e-19 -20.4578 -47.3642 -17.8664 -3.19969 76.737 4.37107 -2.87029 -24.7687 -6.95633 2.03217e-16 0.0 3.88251e-19 26.6982 -43.6309 24.1597 3.28171 77.8463 -5.05328 6.87134 -23.028 16.109
1.18605 59.009 30.2024 -2.2113 -3.4124 1.6309 1.80322 23.4166 0.0930206 0.96761 1.83482 0.0868525 -2.09117 4.19017 -0.145018 3.96365 -40.2787 1.58724 -0.0 0.0 0.0 -0.0 0.0 0.0 4.39883e-14 5.56348e-15 -2.04065e-15 3.64927 -7.32094 52.8637 -25.5149 -22.2465 54.8393 -0.607213 21.5761 3.18593 -1.6888e-10 -2.52244e-09 -5.4272e-10 -2.99502e-10 -4.36165e-09 -9.33415e-10 -1.68889e-10 -2.52247e-09 -5.42741e-10 7.73091 5.47488 0.417314 -1.68882e-10 -2.52243e-09 -5.4272e-10 2.90554 0.965183 0.102902 -1.68875e-10 -2.52243e-09 -5.42718e-10 10.2786 0.731801 0.0259123 -1.68882e-10 -2.52243e-09 -5.42714e-10 2.22167 -0.733487 -0.20892 4.40234e-14 5.56874e-15 -2.17732e-15 -7.22983 -8.81407 -57.4495 25.1242 -21.3627 -53.383 0.0449202 -6.03805 0.85178 2.85816e-10 -3.03787e-09 9.7096e-10 4.88086e-10 -5.23589e-09 1.68183e-09 2.85814e-10 -3.03786e-09 9.70971e-10 -7.73091 5.47488 -0.417314 2.85811e-10 -3.03785e-09 9.70967e-10 -2.90554 0.965183 -0.102902 2.85808e-10 -3.03786e-09 9.7096e-10 -10.2786 0.731801 -0.0259123 2.85819e-10 -3.03786e-09 9.70946e-10 -2.22167 -0.733487 0.20892 -2.03217e-16 0.0 -3.88251e-19 -20.4558 -47.3629 -17.8763 -3.1988 76.7313 4.36866 -2.86905 -24.7696 -6.954 2.03217e-16 0.0 3.88251e-19 26.7023 -43.6438 24.1534 3.27926 77.8391 -5.05019 6.85755 -23.0318 16.0807
1.18722 59.0114 30.2034 -2.1778 -3.4029 1.6217 1.81115 23.4162 0.0832067 0.975675 1.82836 0.0867414 -2.02639 4.28734 -0.15815 3.81022 -40.4456 1.49141 -0.0 0.0 0.0 -0.0 0.0 0.0 4.24122e-14 2.86213e-14 6.50457e-14 3.64407 -7.32277 52.8686 -25.5128 -22.2434 54.8383 -0.607288 21.5774 3.18614 -2.0789e-10 -4.45818e-09 -1.05111e-09 -3.75116e-10 -7.72413e-09 -1.81124e-09 -2.07899e-10 -4.4582e-09 -1.05112e-09 7.73091 5.47488 0.417314 -2.07892e-10 -4.45818e-09 -1.05111e-09 2.90554 0.965183 0.102902 -2.07886e-10 -4.45818e-09 -1.0511e-09 10.2786 0.731801 0.0259123 -2.07894e-10 -4.45818e-09 -1.0511e-09 2.22167 -0.733487 -0.20892 4.24146e-14 2.86291e-14 6.49012e-14 -7.22586 -8.81835 -57.4421 25.1243 -21.3622 -53.3803 0.0454562 -6.07367 0.856843 5.52297e-10 -4.4914e-09 1.25231e-09 9.47372e-10 -7.74267e-09 2.16784e-09 5.52292e-10 -4.4914e-09 1.25232e-09 -7.73091 5.47488 -0.417314 5.52288e-10 -4.49139e-09 1.25231e-09 -2.90554 0.965183 -0.102902 5.52288e-10 -4.4914e-09 1.25231e-09 -10.2786 0.731801 -0.0259123 5.52299e-10 -4.4914e-09 1.25229e-09 -2.22167 -0.733487 0.20892 -2.03217e-16 0.0 -3.88251e-19 -20.4531 -47.3622 -17.8859 -3.19827 76.7261 4.36659 -2.86746 -24.7703 -6.95082 2.03217e-16 0.0 3.88251e-19 26.7079 -43.658 24.148 3.27703 77.8329 -5.04748 6.8435 -23.0363 16.0518
